<?xml version="1.0" encoding="UTF-8"?>
<svg width="28px" height="38px" viewBox="0 0 28 38" version="1.1" xmlns="http://www.w3.org/2000/svg" xmlns:xlink="http://www.w3.org/1999/xlink">
    <!-- Generator: Sketch 54.1 (76490) - https://sketchapp.com -->
    <title>hourglass</title>
    <desc>Created with Sketch.</desc>
    <g id="Page-1" stroke="none" stroke-width="1" fill="none" fill-rule="evenodd">
        <g id="Dashboard" transform="translate(-880.000000, -206.000000)" fill="#FFC402" fill-rule="nonzero">
            <g id="hourglass" transform="translate(880.000000, 206.000000)">
                <ellipse id="Oval" cx="13.8795699" cy="17.6135937" rx="1" ry="1"></ellipse>
                <ellipse id="Oval" cx="7.68268817" cy="4.09761719" rx="1" ry="1"></ellipse>
                <ellipse id="Oval" cx="13.8795699" cy="21.553125" rx="1" ry="1"></ellipse>
                <ellipse id="Oval" cx="13.8795699" cy="25.4919141" rx="1" ry="1"></ellipse>
                <path d="M20.4670968,18.9058164 C23.0482151,17.2688477 24.5891935,14.4872773 24.5891935,11.4649414 L24.5891935,4.81405078 C26.488,4.59903906 27.9677849,3.00526563 27.9677849,1.07639453 L27.9677849,0.7421875 C27.9677849,0.332351562 27.6307312,0 27.2150968,0 L0.784978495,0 C0.369344086,0 0.0322903226,0.332351562 0.0322903226,0.7421875 L0.0322903226,1.07639453 C0.0322903226,3.01350391 1.52456989,4.61299219 3.43496774,4.81709375 L3.43496774,11.4650156 C3.43496774,14.4873516 4.97594624,17.2689219 7.55706452,18.9059648 C7.59213978,18.9282305 7.60990323,18.9598477 7.60990323,19.0000742 C7.60990323,19.0403008 7.59213978,19.071918 7.55706452,19.0942578 C4.97594624,20.7312266 3.43496774,23.5127969 3.43496774,26.5351328 L3.43496774,33.1607891 C1.55776344,33.1665039 0.0322903226,34.6738125 0.0322903226,36.5261641 L0.0322903226,37.2578125 C0.0322903226,37.6676484 0.369344086,38 0.784978495,38 L27.2150968,38 C27.6307312,38 27.9677849,37.6676484 27.9677849,37.2578125 L27.9677849,36.5260898 C27.9677849,34.6817539 26.4553333,33.1797891 24.5891935,33.1613086 L24.5891935,26.5350586 C24.5891935,23.5127227 23.0482151,20.7311523 20.4670968,19.0941094 C20.4320215,19.0718437 20.4142581,19.0402266 20.4142581,19 C20.4142581,18.9597734 20.4320215,18.9281563 20.4670968,18.9058164 Z M24.5544946,34.644793 C25.602914,34.644793 26.4566129,35.4830937 26.4623333,36.515625 L1.53766667,36.515625 C1.5433871,35.4830937 2.39708602,34.644793 3.44558065,34.644793 L4.18615054,34.644793 C4.18690323,34.644793 4.18758065,34.6449414 4.18825806,34.6449414 C4.18908602,34.6449414 4.18998925,34.644793 4.1908172,34.644793 L23.8365054,34.644793 L24.5544946,34.644793 Z M7.39629032,33.160418 L14.0115161,29.9220312 L20.6105591,33.160418 L7.39629032,33.160418 Z M19.6528387,20.342543 C21.8012366,21.7050508 23.0838172,24.0200078 23.0838172,26.5350586 L23.0838172,32.7161445 L14.3474409,28.4288242 C14.1364624,28.3252148 13.8883763,28.3252148 13.6774731,28.4284531 L4.94041935,32.7055312 L4.94041935,26.5349844 C4.94041935,24.0199336 6.223,21.7050508 8.37139785,20.342543 C8.83723656,20.0471523 9.11535484,19.5452109 9.11535484,18.9999258 C9.11535484,18.4546406 8.83731183,17.9527734 8.37139785,17.6573828 C6.223,16.294875 4.94041935,13.979918 4.94041935,11.4648672 L4.94041935,4.22601563 C4.94787097,4.18415625 4.95246237,4.14133203 4.95246237,4.09739453 C4.95246237,3.68755859 4.6154086,3.35520703 4.19977419,3.35520703 L3.8487957,3.35520703 C2.71562366,3.35520703 1.77039785,2.54696484 1.57484946,1.484375 L26.4253011,1.484375 C26.2297527,2.54696484 25.2845269,3.35520703 24.1512796,3.35520703 L11.1576237,3.35520703 C10.7419892,3.35520703 10.4049355,3.68755859 10.4049355,4.09739453 C10.4049355,4.50723047 10.7419892,4.83958203 11.1576237,4.83958203 L23.0837419,4.83958203 L23.0837419,11.4650156 C23.0837419,13.9800664 21.8011613,16.2949492 19.6527634,17.657457 C19.1869247,17.9528477 18.9088065,18.4547891 18.9088065,19.0000742 C18.9088065,19.5453594 19.1868495,20.0471523 19.6528387,20.342543 Z" id="Shape"></path>
                <path d="M20.2194624,11.8089453 L15.6899355,11.8089453 C14.8083871,11.8089453 14.2641935,12.1479766 13.9564194,12.4457422 C13.5304731,12.0710117 12.9157527,11.8089453 12.0694301,11.8089453 L7.53997849,11.8089453 C7.12434409,11.8089453 6.78729032,12.1412969 6.78729032,12.5511328 C6.78729032,12.9609688 7.12434409,13.2933203 7.53997849,13.2933203 L12.0694301,13.2933203 C13.1056559,13.2933203 13.2403871,13.9209883 13.249871,14.1935938 C13.249871,14.1972305 13.2499462,14.2004219 13.2500215,14.2030195 C13.2600323,14.60625 13.5944516,14.9270977 14.0023333,14.9270977 C14.0054194,14.9270977 14.0085806,14.9270977 14.0116667,14.9270234 C14.4237634,14.922125 14.755172,14.591332 14.755172,14.1849102 C14.755172,14.1797148 14.755172,14.1745195 14.7550968,14.1693242 C14.7566774,13.8392734 14.8817742,13.2933203 15.6900108,13.2933203 L20.2195376,13.2933203 C20.6350968,13.2933203 20.9721505,12.961043 20.9721505,12.5511328 C20.9721505,12.1412969 20.6350968,11.8089453 20.2194624,11.8089453 Z" id="Path"></path>
            </g>
        </g>
    </g>
</svg>