<?xml version="1.0" encoding="UTF-8"?>
<svg width="38px" height="32px" viewBox="0 0 38 32" version="1.1" xmlns="http://www.w3.org/2000/svg" xmlns:xlink="http://www.w3.org/1999/xlink">
    <!-- Generator: Sketch 54.1 (76490) - https://sketchapp.com -->
    <title>like</title>
    <desc>Created with Sketch.</desc>
    <g id="Page-1" stroke="none" stroke-width="1" fill="none" fill-rule="evenodd">
        <g id="Dashboard" transform="translate(-1164.000000, -209.000000)" fill="#FF3D02" fill-rule="nonzero">
            <g id="like" transform="translate(1164.000000, 209.000000)">
                <ellipse id="Oval" cx="8.78824219" cy="20.7809032" rx="1" ry="1"></ellipse>
                <path d="M38,14.6218618 L38,14.5454747 C38,12.8381935 36.6018672,11.4491429 34.8832578,11.4491429 L25.9876211,11.4491429 C27.1315547,9.47789862 27.7492031,7.2682765 27.7857187,4.98396313 C27.7918789,4.60084793 27.7888359,4.20534562 27.7855703,3.78661751 C27.7834922,3.51609217 27.7812656,3.23000922 27.7812656,2.92092166 C27.7812656,1.32335484 26.4761289,0.0232258065 24.870332,0.0192442396 C24.5708594,0.0162949309 23.5730625,0.0653271889 22.7879766,0.879926267 C22.4306133,1.25072811 22.1837617,1.71819355 22.0741406,2.23159447 C21.8620234,3.224553 21.5973594,4.0723318 21.2650078,4.82337327 C20.0469297,7.57596313 18.3110273,9.87546544 16.1056172,11.6579539 C15.5185469,12.132424 14.8949609,12.5699539 14.2438398,12.967447 C13.9995117,12.092977 13.1916406,11.4490691 12.2346641,11.4490691 L0.7421875,11.4490691 C0.332277344,11.4490691 0,11.7792442 0,12.1863963 L0,31.243576 C0,31.6507281 0.332277344,31.9809032 0.7421875,31.9809032 L12.2346641,31.9809032 C13.32375,31.9809032 14.2198672,31.1470599 14.3116016,30.0884055 C15.7369727,31.3117051 17.5404883,31.9809032 19.4371484,31.9809032 L34.8831836,31.9809032 C36.601793,31.9809032 38,30.5918525 38,28.8845714 C38,27.9405714 37.5726484,27.0939724 36.8999297,26.5255668 C37.5726484,25.9571613 38,25.1105622 38,24.1664885 L38,24.0740276 C38,23.1300276 37.5726484,22.2834286 36.8999297,21.715023 C37.5725742,21.1466175 38,20.2999447 38,19.3560184 L38,19.3399447 C38,18.3959447 37.5726484,17.5493456 36.8999297,16.9809401 C37.5726484,16.4126083 38,15.5659355 38,14.6218618 Z M12.8355391,14.1835207 C12.8355391,14.1847742 12.8355391,14.1860276 12.8355391,14.1872811 L12.8355391,29.9094562 C12.8355391,30.2385253 12.5660508,30.5063226 12.2346641,30.5063226 L9.53020703,30.5063226 L9.53020703,24.082212 C9.53020703,23.6750599 9.19792969,23.3448848 8.78801953,23.3448848 C8.37810938,23.3448848 8.04583203,23.6750599 8.04583203,24.082212 L8.04583203,30.5063226 L1.484375,30.5063226 L1.484375,12.9237972 L12.2346641,12.9237972 C12.5659766,12.9237972 12.8355391,13.1915945 12.8355391,13.5207373 L12.8355391,14.1835207 Z M32.8275469,17.7182673 L34.8831836,17.7182673 C35.7833086,17.7182673 36.515625,18.4457143 36.515625,19.3399447 L36.515625,19.3560184 C36.515625,20.2502488 35.7833086,20.9776959 34.8831836,20.9776959 L32.8275469,20.9776959 C32.4176367,20.9776959 32.0853594,21.307871 32.0853594,21.715023 C32.0853594,22.1221751 32.4176367,22.4523502 32.8275469,22.4523502 L34.8831836,22.4523502 C35.7832344,22.4523502 36.5155508,23.1797972 36.5155508,24.0740276 L36.5155508,24.1664885 C36.5155508,25.0607189 35.7832344,25.7882396 34.8831094,25.7882396 L32.8274727,25.7882396 C32.4175625,25.7882396 32.0852852,26.1184147 32.0852852,26.5255668 C32.0852852,26.9327189 32.4175625,27.262894 32.8274727,27.262894 L34.8831094,27.262894 C35.7831602,27.262894 36.5154766,27.990341 36.5154766,28.8845714 C36.5154766,29.7788018 35.7831602,30.5062488 34.8830352,30.5062488 L19.4372227,30.5062488 C17.7811055,30.5062488 16.2123438,29.8773825 15.0199453,28.7354101 L14.3199141,28.0649585 L14.3199141,14.6326267 C15.2823828,14.0999078 16.1965352,13.4854931 17.042332,12.8018433 C19.4321758,10.870341 21.3100586,8.38562212 22.6238047,5.41684793 C22.9975703,4.57231336 23.2926641,3.63052535 23.5261563,2.53765899 C23.5792227,2.28932719 23.6915898,2.07461751 23.8601406,1.8997235 C24.2254453,1.52066359 24.703043,1.49360369 24.8315156,1.49360369 C24.8446523,1.49360369 24.8532617,1.49389862 24.8628359,1.49389862 C25.6534883,1.49389862 26.2967422,2.13404608 26.2968164,2.92092166 C26.2968164,3.23413825 26.299043,3.52398157 26.3011953,3.79804608 C26.3043125,4.20785253 26.3073555,4.59494931 26.3014922,4.96058986 C26.2623789,7.40512442 25.4744727,9.75476498 24.0229766,11.7553548 C23.8600664,11.9799447 23.8374297,12.276129 23.964418,12.52247 C24.091332,12.7688848 24.3464961,12.9237972 24.6250391,12.9237972 L34.8831836,12.9237972 C35.7832344,12.9237972 36.5155508,13.6512442 36.5155508,14.5454747 L36.5155508,14.6218618 L36.515625,14.6218618 C36.515625,15.5160922 35.7833086,16.2436129 34.8831836,16.2436129 L32.8275469,16.2436129 C32.4176367,16.2436129 32.0853594,16.573788 32.0853594,16.9809401 C32.0853594,17.3880922 32.4176367,17.7182673 32.8275469,17.7182673 Z" id="Shape" transform="translate(19.000000, 16.000017) scale(1, -1) translate(-19.000000, -16.000017) "></path>
            </g>
        </g>
    </g>
</svg>