<?xml version="1.0" encoding="UTF-8"?>
<svg width="38px" height="38px" viewBox="0 0 38 38" version="1.1" xmlns="http://www.w3.org/2000/svg" xmlns:xlink="http://www.w3.org/1999/xlink">
    <!-- Generator: Sketch 54.1 (76490) - https://sketchapp.com -->
    <title>package</title>
    <desc>Created with Sketch.</desc>
    <g id="Page-1" stroke="none" stroke-width="1" fill="none" fill-rule="evenodd">
        <g id="Dashboard" transform="translate(-310.000000, -206.000000)" fill="#00B1FF" fill-rule="nonzero">
            <g id="package" transform="translate(310.000000, 206.000000)">
                <path d="M37.8648477,9.028572 C37.7259102,8.826184 37.4993945,8.7058 37.2578125,8.7058 L24.9871523,8.7058 C24.6905742,8.7058 24.4224961,8.886604 24.3053047,9.165676 L21.6869414,15.402236 L16.3129102,15.402236 L13.6945469,9.165676 C13.5774297,8.886604 13.3093516,8.7058 13.0126992,8.7058 L0.7421875,8.7058 C0.500605469,8.7058 0.274089844,8.826184 0.135152344,9.028572 C-0.003859375,9.230884 -0.038,9.489816 0.0437148438,9.72268 L2.32356641,16.223568 L2.32356641,37.206332 C2.32356641,37.626004 2.65591797,37.966332 3.06575391,37.966332 L22.1757461,37.966332 L34.9093828,37.966332 C35.3192188,37.966332 35.6515703,37.626004 35.6515703,37.206332 L35.6515703,16.294476 L37.9562852,9.72268 C38.038,9.489892 38.0038594,9.230884 37.8648477,9.028572 Z M1.79735547,10.2258 L12.524043,10.2258 L14.6973164,15.40216 L3.61259766,15.40216 L1.79735547,10.2258 Z M34.1672695,36.446332 L34.1672695,36.446332 L22.9179336,36.446332 L22.9179336,23.410964 C22.9179336,22.991292 22.585582,22.650964 22.1757461,22.650964 C21.7659102,22.650964 21.4335586,22.991292 21.4335586,23.410964 L21.4335586,36.446332 L3.80794141,36.446332 L3.80794141,16.922236 L34.1672695,16.922236 L34.1672695,36.446332 Z M34.3874023,15.402236 L23.3026836,15.402236 L25.475957,10.225876 L36.2026445,10.225876 L34.3874023,15.402236 Z" id="Shape"></path>
                <path d="M19.0702109,0.033744 C18.660375,0.033744 18.3280234,0.374072 18.3280234,0.793744 L18.3280234,4.601344 C18.3280234,5.021092 18.660375,5.361344 19.0702109,5.361344 C19.4800469,5.361344 19.8123984,5.021016 19.8123984,4.601344 L19.8123984,0.793744 C19.8123984,0.374072 19.4800469,0.033744 19.0702109,0.033744 Z" id="Path"></path>
                <path d="M25.657793,2.961188 C25.3678945,2.664484 24.8980898,2.664484 24.6081172,2.961188 L21.9788438,5.653564 C21.6890195,5.950344 21.6890195,6.431576 21.9788438,6.728432 C22.1238672,6.87686 22.3137188,6.951036 22.5037188,6.951036 C22.6937188,6.951036 22.8835703,6.876784 23.0285195,6.728432 L25.657793,4.036056 C25.9476172,3.739276 25.9476172,3.258044 25.657793,2.961188 Z" id="Path"></path>
                <path d="M16.021082,5.65364 L13.3918086,2.961264 C13.1019102,2.66456 12.6321055,2.66456 12.3421328,2.961264 C12.0523086,3.258044 12.0523086,3.739276 12.3421328,4.036132 L14.9714805,6.728508 C15.1164297,6.87686 15.3063555,6.951112 15.4962813,6.951112 C15.686207,6.951112 15.8761328,6.87686 16.021082,6.728508 C16.3109063,6.431728 16.3109063,5.950496 16.021082,5.65364 Z" id="Path"></path>
                <ellipse id="Oval" cx="22.1758203" cy="19.808716" rx="1" ry="1"></ellipse>
            </g>
        </g>
    </g>
</svg>